<svg width="178" height="152" viewBox="0 0 178 152" fill="none" xmlns="http://www.w3.org/2000/svg">
<path d="M2 47.5L18.5 32.5L19 114.5L29.5 122.5V42.5L0.5 12.5L15 0L48 33.5V119.5L14 136L0 123.5V47.5H2Z" fill="#FFF3E4"/>
<path d="M111 45V113L121.5 121L105.5 135.5L89.5 121L92.5 118.5V51C89.6667 49.1667 87 44.5 75 47.5L73.8199 48.208C73.2392 48.7136 72.7861 49 72.5 49L73.8199 48.208C77.2992 45.1792 85.358 34.2848 89.5 30C89.5 32 106.167 38.1667 114.5 41L111 45Z" fill="#FFF3E4"/>
<path d="M81.5 46.5C89.232 46.5 95.5 52.768 95.5 60.5C95.5 64.3779 94.1052 67.4901 91.6816 69.8232C89.2549 72.1594 85.7388 73.765 81.417 74.498C77.5641 74.4757 73.7044 72.904 70.8037 70.3555C67.8847 67.7908 66 64.2989 66 60.5C66 56.7011 67.8847 53.2092 70.8037 50.6445C73.7252 48.0777 77.6196 46.5 81.5 46.5Z" stroke="#FFF3E4" stroke-width="2"/>
<path d="M64 90.5L82 75V114L89.5 121L74.5 135.5C70.5 127.5 63.1667 123.5 60 122.5V120L64 117.5V90.5Z" fill="#FFF3E4"/>
<path d="M134 32L134.5 31L149.5 45.5L148 47.5V103.5L154.5 108.5L140.5 121.5C140.9 119.9 130.667 110.833 125.5 106.5L128.5 103.5V52L122 47.5V45.5L134 33.5V32Z" fill="#FFF3E4"/>
<path d="M163.5 30C163.1 31.6 154.167 41 150 45.5L156 52V143.5L150 149.5V152L153 151.5L175 128.5V47L178 45V42.5H176.5L163.5 30Z" fill="#FFF3E4"/>
</svg>
