<svg width="148" height="80" viewBox="0 0 148 80" fill="none" xmlns="http://www.w3.org/2000/svg">
<path d="M1.74943 12.3959L11.9916 1.4043L11.2422 67.1043C11.2422 67.9037 14.573 69.9354 16.2384 70.8514V72.3503C15.0393 72.1504 10.9091 76.264 8.99391 78.3457C8.99391 77.946 4.3308 73.6826 1.99924 71.6008H1V70.8514H1.99924V15.8933L1.74943 15.3936V12.3959Z" fill="#FFF3E4" stroke="#FFF3E4" stroke-width="0.49962"/>
<path d="M32.708 30.29L38.2041 44.0293L38.2773 44.2129L38.1162 44.3262L33.9746 47.249V47.8945L38.4971 48.3701L39.0488 48.4287L38.6396 48.8027L32.6445 54.2988L32.5732 54.3643H26.9805V67.958L32.4727 71.0625L33.5967 70.3877L33.7402 70.3018L33.875 70.4023L34.874 71.1514L35.1562 71.3633L34.8623 71.5596L33.3779 72.5488L26.8994 78.5303L26.7568 78.6611L26.5947 78.5557L17.3516 72.5605L17.1709 72.4434L17.2598 72.2471L18.4863 69.5488V39.2793L18.8154 39.3887C18.8293 39.3932 18.8815 39.4013 18.9941 39.3789C19.1019 39.3574 19.241 39.3134 19.4102 39.2451C19.7482 39.1086 20.1817 38.8855 20.6904 38.5908C21.7063 38.0023 22.9965 37.1438 24.3818 36.168C27.1514 34.217 30.2825 31.8095 32.3203 30.1875L32.583 29.9785L32.708 30.29ZM26.4805 40.374V51.8799L26.8848 51.5625L30.3818 48.8145L30.5176 48.708L30.4658 48.543L27.9678 40.5498L27.9131 40.374H26.4805Z" fill="#FFF3E4"/>
<path d="M64.0748 35.8778L58.6679 42.0711L47.6377 36.9742L46.7726 50.7254L51.3144 52.7199L56.5051 44.7421H57.3702L56.5051 46.1311L57.1539 46.5149L64.0748 52.7199L62.3446 54.4927C62.633 59.5896 63.0367 69.7392 62.3446 69.5619C61.6525 69.3846 56.2888 74.0679 53.6935 76.4316V79.3125H53.0447V76.4316L41.1494 69.7835H40.5005L38.554 72.886L37.4727 72.4427L45.0424 61.1409H46.5563L45.0424 63.5785L53.6935 69.7835L57.3702 58.9131L51.3144 53.6063L47.2052 60.0328L38.9866 53.6063L40.5005 52.2766V38.7587C45.4749 37.2075 48.7191 28.3432 49.3679 30.1161C49.887 31.5344 57.947 35.5824 61.912 37.4291L64.0748 34.7698V35.8778Z" fill="#FFF3E4" stroke="#FFF3E4" stroke-width="0.443211"/>
<line y1="-0.664816" x2="45.3831" y2="-0.664816" transform="matrix(0.571872 -0.820343 0.806964 0.590601 38.3398 72.4312)" stroke="#FFF3E4" stroke-width="1.32963"/>
<path d="M91.0533 35.8778L85.6464 42.0711L74.6162 36.9742L73.7511 50.7254L78.2929 52.7199L83.4836 44.7421H84.3487L83.4836 46.1311L84.1324 46.5149L91.0533 52.7199L89.3231 54.4927C89.6115 59.5896 90.0152 69.7392 89.3231 69.5619C88.631 69.3846 83.2673 74.0679 80.672 76.4316V79.3125H80.0232V76.4316L68.1279 69.7835H67.4791L65.5326 72.886L64.4512 72.4427L72.0209 61.1409H73.5348L72.0209 63.5785L80.672 69.7835L84.3487 58.9131L78.2929 53.6063L74.1837 60.0328L65.9651 53.6063L67.4791 52.2766V38.7587C72.4534 37.2075 75.6976 28.3432 76.3464 30.1161C76.8655 31.5344 84.9255 35.5824 88.8906 37.4291L91.0533 34.7698V35.8778Z" fill="#FFF3E4" stroke="#FFF3E4" stroke-width="0.443211"/>
<line y1="-0.664816" x2="45.3831" y2="-0.664816" transform="matrix(0.571872 -0.820343 0.806964 0.590601 65.3184 72.4312)" stroke="#FFF3E4" stroke-width="1.32963"/>
<path d="M108.936 29.9526L116.269 34.5366L116.475 34.6646L116.353 34.8735C116.293 34.976 116.227 35.1648 116.163 35.4536C116.101 35.7366 116.044 36.0964 115.994 36.5269C115.894 37.3878 115.82 38.5164 115.77 39.8501C115.668 42.5167 115.658 45.988 115.705 49.7495C115.799 57.272 116.118 65.9439 116.386 71.6333L116.395 71.8169L116.222 71.8794L101.097 77.3794L100.912 77.4468L100.804 77.2837C100.098 76.2252 98.7564 75.1011 97.3398 74.1187C95.93 73.1408 94.4738 72.3214 93.5664 71.8677L93.4277 71.7993V36.1685L93.6035 36.1138C96.5207 35.2021 104.877 31.6192 108.702 29.936L108.823 29.8823L108.936 29.9526ZM101.678 67.4331L101.801 67.5063C102.637 68.0005 103.915 68.7991 105.026 69.5864C105.582 69.9803 106.093 70.3686 106.485 70.7124C106.681 70.8843 106.845 71.0427 106.968 71.1821C107.094 71.3249 107.166 71.4346 107.196 71.5093L107.678 71.4165V39.186L107.551 39.1138C106.33 38.4271 103.545 36.6997 102.104 35.2593L101.678 34.8325V67.4331Z" fill="#FFF3E4"/>
<path d="M118.41 34.4793C120.467 34.2908 123.474 30.0041 124.72 27.8843C124.72 29.2033 128.926 32.6735 131.03 34.2437C131.964 34.0553 136.405 29.9256 138.508 27.8843C138.695 28.638 142.636 32.1239 144.584 33.7727V34.4793L143.883 35.6569V67.9252L147.388 70.5161V71.4582L141.779 77.3466H141.078C140.891 76.7813 136.327 72.7144 134.068 70.7516L135.236 69.3384V38.7189L131.03 34.9503L130.328 35.6569V67.2186L133.6 70.7516L127.758 76.8755H127.057C126.683 76.1218 122.383 72.4789 120.28 70.7516V70.2806L121.916 69.574V37.7767L118.41 35.6569V34.4793Z" fill="#FFF3E4" stroke="#FFF3E4" stroke-width="0.49962"/>
</svg>
